<svg xmlns="http://www.w3.org/2000/svg" viewBox="0 0 40 40">
  <rect width="1" height="1" x="16" y="15"></rect>
  <rect width="1" height="1" x="20" y="15"></rect>
  <rect width="1" height="1" x="23" y="15"></rect>
  <rect width="1" height="1" x="16" y="16"></rect>
  <rect width="1" height="1" x="20" y="16"></rect>
  <rect width="1" height="1" x="23" y="16"></rect>
  <rect width="1" height="1" x="20" y="17"></rect>
  <rect width="1" height="1" x="20" y="18"></rect>
  <rect width="1" height="1" x="20" y="19"></rect>
  <rect width="1" height="1" x="19" y="20"></rect>
  <rect width="1" height="1" x="20" y="20"></rect>
  <rect width="1" height="1" x="19" y="23"></rect>
  <rect width="1" height="1" x="20" y="23"></rect>
  <rect width="1" height="1" x="18" y="23"></rect>
  <rect width="1" height="1" x="21" y="23"></rect>
  <rect width="1" height="1" x="17" y="22"></rect>
  <rect width="1" height="1" x="22" y="22"></rect>
</svg>
