<svg xmlns="http://www.w3.org/2000/svg" viewBox="0 0 40 40">
  <rect width="1" height="1" x="18" y="12"></rect>
  <rect width="1" height="1" x="19" y="12"></rect>
  <rect width="1" height="1" x="20" y="12"></rect>
  <rect width="1" height="1" x="21" y="12"></rect>
  <rect width="1" height="1" x="17" y="13"></rect>
  <rect width="1" height="1" x="18" y="13"></rect>
  <rect width="1" height="1" x="19" y="13"></rect>
  <rect width="1" height="1" x="20" y="13"></rect>
  <rect width="1" height="1" x="21" y="13"></rect>
  <rect width="1" height="1" x="22" y="13"></rect>
  <rect width="1" height="1" x="16" y="14"></rect>
  <rect width="1" height="1" x="17" y="14"></rect>
  <rect width="1" height="1" x="18" y="14"></rect>
  <rect width="1" height="1" x="21" y="14"></rect>
  <rect width="1" height="1" x="22" y="14"></rect>
  <rect width="1" height="1" x="23" y="14"></rect>
  <rect width="1" height="1" x="16" y="15"></rect>
  <rect width="1" height="1" x="17" y="15"></rect>
  <rect width="1" height="1" x="22" y="15"></rect>
  <rect width="1" height="1" x="23" y="15"></rect>
  <rect width="1" height="1" x="22" y="16"></rect>
  <rect width="1" height="1" x="23" y="16"></rect>
  <rect width="1" height="1" x="21" y="17"></rect>
  <rect width="1" height="1" x="22" y="17"></rect>
  <rect width="1" height="1" x="23" y="17"></rect>
  <rect width="1" height="1" x="20" y="18"></rect>
  <rect width="1" height="1" x="21" y="18"></rect>
  <rect width="1" height="1" x="22" y="18"></rect>
  <rect width="1" height="1" x="19" y="19"></rect>
  <rect width="1" height="1" x="20" y="19"></rect>
  <rect width="1" height="1" x="21" y="19"></rect>
  <rect width="1" height="1" x="19" y="20"></rect>
  <rect width="1" height="1" x="20" y="20"></rect>
  <rect width="1" height="1" x="19" y="21"></rect>
  <rect width="1" height="1" x="20" y="21"></rect>
  <rect width="1" height="1" x="19" y="24"></rect>
  <rect width="1" height="1" x="20" y="24"></rect>
  <rect width="1" height="1" x="19" y="25"></rect>
  <rect width="1" height="1" x="20" y="25"></rect>
</svg>
