<svg xmlns="http://www.w3.org/2000/svg" viewBox="0 0 40 40">
  <rect width="1" height="1" x="18" y="19"/>
  <rect width="1" height="1" x="17" y="20"/>
  <rect width="1" height="1" x="18" y="20"/>
  <rect width="1" height="1" x="17" y="21"/>
  <rect width="1" height="1" x="18" y="21"/>
  <rect width="1" height="1" x="15" y="22"/>
  <rect width="1" height="1" x="16" y="22"/>
  <rect width="1" height="1" x="16" y="23"/>
  <rect width="1" height="1" x="16" y="21"/>
  <rect width="1" height="1" x="17" y="22"/>
  <rect width="1" height="1" x="22" y="15"/>
  <rect width="1" height="1" x="21" y="16"/>
  <rect width="1" height="1" x="22" y="16"/>
  <rect width="1" height="1" x="21" y="17"/>
  <rect width="1" height="1" x="22" y="17"/>
  <rect width="1" height="1" x="19" y="18"/>
  <rect width="1" height="1" x="20" y="18"/>
  <rect width="1" height="1" x="19" y="19"/>
  <rect width="1" height="1" x="20" y="19"/>
  <rect width="1" height="1" x="20" y="17"/>
  <rect width="1" height="1" x="21" y="18"/>
  <rect width="1" height="1" x="19" y="20"/>
  <rect width="1" height="1" x="23" y="16"/>
  <rect width="1" height="1" x="23" y="15"/>
  <rect width="1" height="1" x="15" y="23"/>
  <rect width="1" height="1" x="20" y="21"/>
  <rect width="1" height="1" x="21" y="20"/>
  <rect width="1" height="1" x="20" y="20"/>
  <rect width="1" height="1" x="21" y="21"/>
  <rect width="1" height="1" x="20" y="21"/>
  <rect width="1" height="1" x="23" y="22"/>
  <rect width="1" height="1" x="22" y="22"/>
  <rect width="1" height="1" x="22" y="23"/>
  <rect width="1" height="1" x="22" y="21"/>
  <rect width="1" height="1" x="21" y="22"/>
  <rect width="1" height="1" x="16" y="15"/>
  <rect width="1" height="1" x="17" y="16"/>
  <rect width="1" height="1" x="16" y="16"/>
  <rect width="1" height="1" x="17" y="17"/>
  <rect width="1" height="1" x="16" y="17"/>
  <rect width="1" height="1" x="19" y="18"/>
  <rect width="1" height="1" x="18" y="18"/>
  <rect width="1" height="1" x="19" y="19"/>
  <rect width="1" height="1" x="18" y="19"/>
  <rect width="1" height="1" x="18" y="17"/>
  <rect width="1" height="1" x="17" y="18"/>
  <rect width="1" height="1" x="19" y="20"/>
  <rect width="1" height="1" x="15" y="16"/>
  <rect width="1" height="1" x="15" y="15"/>
  <rect width="1" height="1" x="23" y="23"/>
</svg>
