<svg xmlns="http://www.w3.org/2000/svg" viewBox="0 0 40 40">
  <rect width="1" height="1" x="21" y="19"/>
  <rect width="1" height="1" x="20" y="20"/>
  <rect width="1" height="1" x="21" y="20"/>
  <rect width="1" height="1" x="20" y="21"/>
  <rect width="1" height="1" x="21" y="21"/>
  <rect width="1" height="1" x="18" y="22"/>
  <rect width="1" height="1" x="19" y="22"/>
  <rect width="1" height="1" x="18" y="23"/>
  <rect width="1" height="1" x="19" y="23"/>
  <rect width="1" height="1" x="19" y="21"/>
  <rect width="1" height="1" x="20" y="22"/>
  <rect width="1" height="1" x="25" y="15"/>
  <rect width="1" height="1" x="24" y="16"/>
  <rect width="1" height="1" x="25" y="16"/>
  <rect width="1" height="1" x="24" y="17"/>
  <rect width="1" height="1" x="25" y="17"/>
  <rect width="1" height="1" x="22" y="18"/>
  <rect width="1" height="1" x="23" y="18"/>
  <rect width="1" height="1" x="22" y="19"/>
  <rect width="1" height="1" x="23" y="19"/>
  <rect width="1" height="1" x="23" y="17"/>
  <rect width="1" height="1" x="24" y="18"/>
  <rect width="1" height="1" x="22" y="20"/>
  <rect width="1" height="1" x="17" y="21"/>
  <rect width="1" height="1" x="17" y="22"/>
  <rect width="1" height="1" x="18" y="21"/>
  <rect width="1" height="1" x="16" y="21"/>
  <rect width="1" height="1" x="16" y="20"/>
  <rect width="1" height="1" x="17" y="20"/>
  <rect width="1" height="1" x="26" y="16"/>
  <rect width="1" height="1" x="26" y="15"/>
  <rect width="1" height="1" x="16" y="19"/>
  <rect width="1" height="1" x="15" y="19"/>
  <rect width="1" height="1" x="15" y="20"/>
</svg>
